<svg class="preloader__logo" width="239" height="34" fill="none" xmlns="http://www.w3.org/2000/svg"><path d="m5.397 4.762 4.841 15.754h1.19L16.27 4.762h5.397l-6.35 20.635H6.35L0 4.762h5.397ZM23.445 16.27V4.762h5.159v10.317c0 3.691 1.706 5.437 4.206 5.437h2.222c2.5 0 3.096-1.746 3.096-4.563V4.761h5.159V23.81c0 5.675-3.453 9.127-9.127 9.127h-1.627c-6.191 0-9.128-2.936-9.128-6.746h5.16c0 1.27.476 1.587 3.968 1.587h1.627c3.174 0 3.968-.793 3.968-3.928-1.151 1.19-2.818 1.746-5.238 1.746-6.43 0-9.445-2.977-9.445-9.326ZM44.64 15c0-5.754 3.929-10.436 9.723-10.436 2.619 0 4.682.952 6.19 2.54V0h5.16v25.398h-5.16v-2.342c-1.508 1.627-3.571 2.58-6.19 2.58-5.794 0-9.723-4.723-9.723-10.636Zm9.326 5.517h2.38c2.7 0 4.207-1.667 4.207-4.326V13.81c0-2.659-1.508-4.326-4.206-4.326h-2.381c-2.699 0-4.564 2.064-4.564 5.517 0 3.452 1.865 5.516 4.564 5.516ZM72.584 4.762v1.547c1.151-1.19 2.818-1.746 5.239-1.746 6.428 0 9.444 2.977 9.444 9.326v11.508h-5.159V15.08c0-3.691-.912-5.437-3.412-5.437H75.68c-2.5 0-3.096 1.746-3.096 4.563v11.191h-5.159V4.762h5.16ZM89.048 15c0-6.706 4.008-10.437 10.516-10.437 6.786 0 10.516 3.969 10.516 10.437 0 6.826-4.008 10.635-10.516 10.635-6.786 0-10.516-4.008-10.516-10.635Zm9.326 5.516h2.381c2.698 0 4.563-2.063 4.563-5.516 0-3.452-1.865-5.516-4.563-5.516h-2.381c-2.699 0-4.564 2.064-4.564 5.516 0 3.453 1.865 5.516 4.564 5.516Z" fill="#FCFCFC"/><path d="M141.784 15c0-6.548 3.929-10.437 9.722-10.437 2.62 0 4.683.953 6.191 2.54V4.762h2.976V25c0 5.08-2.976 8.017-8.055 8.017h-2.421c-4.961 0-7.738-1.945-7.738-6.628h2.976c0 2.977.992 3.651 4.762 3.651h2.421c3.611 0 5.079-1.428 5.079-5.04v-1.944c-1.508 1.627-3.571 2.58-6.191 2.58-5.793 0-9.722-3.93-9.722-10.636Zm8.373 7.46h2.58c3.214 0 4.96-2.261 4.96-5.833v-3.254c0-3.571-1.746-5.833-4.96-5.833h-2.58c-3.214 0-5.397 2.777-5.397 7.46s2.183 7.46 5.397 7.46Zm12.242-7.42c0-6.865 3.571-10.477 9.286-10.477 5.714 0 9.286 3.612 9.286 10.477v.794h-15.516c.158 5 1.865 6.706 5.158 6.706h2.5c2.064 0 3.612-1.31 4.564-3.889h2.976c-1.111 4.405-4.365 6.945-8.968 6.945-5.953 0-9.286-3.969-9.286-10.556Zm15.437-1.984c-.397-4.088-2.064-5.516-5.08-5.516h-2.143c-3.015 0-4.682 1.428-5.079 5.516h12.302Zm7.844-8.294v1.785c1.23-1.349 3.055-1.984 5.635-1.984 6.27 0 8.651 3.215 8.651 9.326v11.508h-2.976v-12.42c0-3.691-1.31-5.437-3.81-5.437h-3.611c-2.5 0-3.889 1.746-3.889 4.563v13.294h-2.976V4.762h2.976Zm16.012 10.278c0-6.865 3.571-10.477 9.286-10.477 4.365 0 7.659 2.143 8.849 6.548h-2.976c-.913-2.341-2.302-3.571-4.365-3.571h-2.659c-3.452 0-5.159 1.904-5.159 7.5 0 5.595 1.707 7.5 5.159 7.5h2.58c2.063 0 3.611-1.31 4.563-3.889h2.976c-1.111 4.405-4.365 6.945-8.968 6.945-5.953 0-9.286-3.969-9.286-10.556Zm19.995 1.23V4.762h2.976v12.42c0 3.691 1.706 5.437 4.206 5.437h3.215c2.5 0 3.888-1.746 3.888-4.563V4.762h2.977V25c0 5.08-2.977 8.017-8.056 8.017h-.833c-4.961 0-7.739-1.945-7.739-6.628h2.977c0 2.977.992 3.651 4.762 3.651h.833c3.611 0 5.079-1.428 5.079-5.04v-1.389c-1.23 1.35-3.055 1.985-5.634 1.985-6.27 0-8.651-3.215-8.651-9.326Z" fill="#44D7B3"/><path d="M124.648 20.528c3.141 1.199 6.952.554 9.122-1.5l.205-.203a7.19 7.19 0 0 0 .65-.797c.093-.133.173-.255.228-.354.027-.05.048-.094.062-.128a.21.21 0 0 0 .019-.066.268.268 0 0 0-.021-.068 1.421 1.421 0 0 0-.068-.135 4.913 4.913 0 0 0-.242-.374 7.707 7.707 0 0 0-.503-.633l-.171-.181c-1.417-1.436-3.625-2.27-5.991-2.254l-.375.009c-.123.004-.236.01-.306.014h.001c-2.214.168-4.179 1.072-5.436 2.479l-.241.288c-.05.063-.116.15-.18.241l-.172.256-.091.143a.749.749 0 0 0-.048.09.274.274 0 0 0-.024.125c0 .05.005.081.022.122.009.023.023.05.043.083l.081.128v.001c.744 1.156 1.808 2.031 3.162 2.604l.274.11Zm3.644.033c-1.898.142-3.614-1.034-3.875-2.654l-.021-.158c-.059-.582.115-1.258.45-1.794l.153-.22c.534-.692 1.372-1.14 2.396-1.294l.207-.026c.1-.011.322-.01.542 0 .11.004.223.01.322.019l.243.026c.862.142 1.659.56 2.155 1.126l.096.116c.396.51.633 1.176.639 1.79l-.012.257c-.142 1.41-1.376 2.531-2.971 2.775l-.323.037h-.001Zm3.124-.736a.067.067 0 0 1-.025-.036.06.06 0 0 1 0-.037l.006-.018.011-.015a.57.57 0 0 1 .03-.04l.1-.124a3.45 3.45 0 0 0 .628-1.212l.048-.187c.037-.17.051-.332.051-.676 0-.258-.008-.412-.028-.546l-.023-.129a3.52 3.52 0 0 0-.564-1.253l-.112-.145c-.04-.049-.076-.092-.1-.124a.569.569 0 0 1-.03-.04l-.011-.016c0-.001-.004-.008-.006-.017a.06.06 0 0 1 0-.037.067.067 0 0 1 .025-.036.067.067 0 0 1 .039-.012c.01 0 .019.002.021.003l.007.003.013.005.036.016.103.049.001.001a7.668 7.668 0 0 1 1.731 1.244l.198.202c.133.143.342.401.473.58l.1.144.047.08.021.036-.024.035-.149.213c-.403.576-1.081 1.21-1.76 1.654l-.29.18a8.15 8.15 0 0 1-.442.236 1.151 1.151 0 0 1-.059.026l-.027.005a.067.067 0 0 1-.039-.012Zm-6.915.007-.017-.006-.042-.02a4.36 4.36 0 0 1-.123-.061l-.319-.176a7.09 7.09 0 0 1-1.856-1.579l-.194-.253a5.07 5.07 0 0 1-.103-.148l-.033-.051-.01-.02a.028.028 0 0 1-.005-.01l-.006-.028.004-.024a.14.14 0 0 1 .006-.014l.012-.023.039-.06a6.577 6.577 0 0 1 .287-.385l.161-.196c.198-.227.585-.585.92-.855l.308-.233c.23-.156.541-.341.887-.526v-.001a.349.349 0 0 1 .07-.031.099.099 0 0 1 .026-.002.07.07 0 0 1 .048.02c.017.018.02.04.02.053 0 .012-.004.022-.006.028a.298.298 0 0 1-.044.07l-.086.106a3.379 3.379 0 0 0-.615 1.165l-.05.184c-.05.214-.06.32-.06.724 0 .304.006.44.03.58l.03.146c.101.427.304.865.555 1.208l.11.14h.001l.1.125.03.04.01.015a.093.093 0 0 1 .008.018c0 .002.004.018-.001.037a.07.07 0 0 1-.026.036l-.039.012c-.013 0-.024-.004-.027-.005Z" fill="#fff" stroke="#fff" stroke-width=".133"/><path d="M140.109 25.25h-24.218L128 4.975l12.109 20.275Z" stroke="#fff"/><circle cx="128.025" cy="17.44" r="1.792" fill="#fff" stroke="#fff"/></svg>